HIERARCHY
ROOT hip
{
	OFFSET 0.000000 0.000000 0.000000 
	CHANNELS 6 Xposition Yposition Zposition Xrotation Zrotation Yrotation
	JOINT abdomen
	{
		OFFSET 0.000000 3.402643 0.000000 
		CHANNELS 3 Xrotation Zrotation Yrotation
		JOINT chest
		{
			OFFSET 0.000000 8.438565 -0.680529 
			CHANNELS 3 Xrotation Zrotation Yrotation
			JOINT neck
			{
				OFFSET 0.000000 10.207942 -0.272212 
				CHANNELS 3 Xrotation Zrotation Yrotation
				JOINT head
				{
					OFFSET 0.000000 3.130431 0.000000 
					CHANNELS 3 Xrotation Zrotation Yrotation
					End Site
					{
						OFFSET 0.000000 3.130435 0.000000 
					}
				}
			}
			JOINT lCollar
			{
				OFFSET 3.470700 6.669187 -0.816635 
				CHANNELS 3 Yrotation Zrotation Xrotation
				JOINT lShldr
				{
					OFFSET 3.198488 0.000000 0.000000 
					CHANNELS 3 Zrotation Yrotation Xrotation
					JOINT lForeArm
					{
						OFFSET 10.139888 0.000000 0.000000 
						CHANNELS 3 Yrotation Zrotation Xrotation
						JOINT lHand
						{
							OFFSET 8.370511 0.000000 0.000000 
							CHANNELS 3 Zrotation Yrotation Xrotation
							End Site
							{
								OFFSET 4.083176 0.000000 0.000000 
							}
						}
					}
				}
			}
			JOINT rCollar
			{
				OFFSET -3.470700 6.669187 -0.816635 
				CHANNELS 3 Yrotation Zrotation Xrotation
				JOINT rShldr
				{
					OFFSET -3.198488 0.000000 0.000000 
					CHANNELS 3 Zrotation Yrotation Xrotation
					JOINT rForeArm
					{
						OFFSET -10.139888 0.000000 0.000000 
						CHANNELS 3 Yrotation Zrotation Xrotation
						JOINT rHand
						{
							OFFSET -8.370511 0.000000 0.000000 
							CHANNELS 3 Zrotation Yrotation Xrotation
							End Site
							{
								OFFSET -4.083176 0.000000 0.000000 
							}
						}
					}
				}
			}
		}
	}
	JOINT lThigh
	{
		OFFSET 5.308129 -1.633274 1.361059 
		CHANNELS 3 Xrotation Zrotation Yrotation
		JOINT lShin
		{
			OFFSET -2.041588 -20.007561 0.000000 
			CHANNELS 3 Xrotation Zrotation Yrotation
			JOINT lFoot
			{
				OFFSET 0.000000 -19.190928 -1.224953 
				CHANNELS 3 Xrotation Yrotation Zrotation
				End Site
				{
					OFFSET 0.000000 -2.449906 4.627600 
				}
			}
		}
	}
	JOINT rThigh
	{
		OFFSET -5.308129 -1.633274 1.361059 
		CHANNELS 3 Xrotation Zrotation Yrotation
		JOINT rShin
		{
			OFFSET 2.041588 -20.007561 0.000000 
			CHANNELS 3 Xrotation Zrotation Yrotation
			JOINT rFoot
			{
				OFFSET 0.000000 -19.190928 -1.224953 
				CHANNELS 3 Xrotation Yrotation Zrotation
				End Site
				{
					OFFSET 0.000000 -2.449906 4.627600 
				}
			}
		}
	}
}
MOTION
Frames: 13
Frame Time: 0.011111
21.271652 53.729660 36.925484 143.189026 -177.784760 -5.629175 66.243164 -0.748811 0.213781 -21.880472 3.563257 2.355774 -19.977886 -1.151444 -3.612911 26.012913 0.286025 -6.961718 -7.144085 -8.915731 -1.117720 -54.511513 -29.973879 23.216021 -64.865150 9.454845 14.621383 8.524705 12.647240 -0.296278 11.057579 9.042061 -2.265095 52.139248 17.098759 17.211599 59.274261 -9.216578 12.091761 -8.534408 -12.637552 62.376812 -76.599945 5.693638 2.591381 81.244789 -0.049313 -9.484770 -178.697433 175.759827 -3.165589 -73.633514 -4.159598 -4.778561 74.047737 0.996514 9.122968 -8.066964 -5.831824 2.380380 
21.230900 54.003445 36.603981 144.353958 -177.643417 -6.042753 65.985291 -1.386573 -0.061475 -21.674780 3.683651 2.433237 -20.171513 -1.196553 -3.551364 25.498587 0.633234 -6.874736 -7.144085 -8.915731 -1.117720 -54.169437 -31.185381 21.843046 -62.904541 9.431186 13.720210 8.524705 12.647240 -1.331434 11.057579 9.042061 -2.265095 53.015816 17.303953 16.144094 57.669598 -9.050838 11.387128 -8.534408 -12.637552 61.468609 -75.606506 5.633818 2.571634 79.737305 -0.233725 -9.423295 -175.377090 174.169312 -3.618029 -71.853981 -2.910126 -4.647314 70.649757 1.435896 8.919209 -8.780106 -2.952962 2.711972 
21.162626 54.035496 36.494606 144.384552 -177.489883 -6.027753 64.892349 -1.643106 -0.201256 -21.625658 3.806866 2.374309 -20.551439 -1.302354 -3.474011 25.376192 0.874208 -6.823469 -7.144085 -8.915731 -1.117720 -53.649567 -32.770741 20.960573 -60.751610 9.324751 12.733033 8.524705 12.647240 -2.874403 11.057579 9.042061 -2.265095 53.704445 18.163637 14.594948 55.675194 -8.782281 10.524580 -8.534408 -12.637552 59.867046 -76.171509 5.233243 1.873752 76.858276 -0.624581 -9.308826 -172.927200 172.719254 -4.065052 -71.944046 -1.962574 -3.845073 66.742073 1.924142 8.640766 -8.774364 -0.858606 3.028532 
21.077984 54.020512 36.304764 144.980621 -177.369095 -5.757524 64.483322 -1.577418 -0.268400 -21.635527 3.786662 2.335154 -20.915812 -1.485558 -3.440076 25.430172 1.010099 -6.838326 -7.144085 -8.915731 -1.117720 -52.999683 -34.528938 20.677551 -58.654591 9.146171 11.796067 8.524705 12.647240 -4.690810 11.057579 9.042061 -2.265095 54.202618 19.161200 12.860140 53.701176 -8.465223 9.687887 -8.534408 -12.637552 57.835796 -75.348938 4.628168 0.938820 72.888863 -1.140144 -9.067429 -171.780029 171.108444 -4.454009 -71.110809 -1.406121 -2.286734 62.749981 2.383997 8.362704 -9.436126 -0.762049 3.022322 
20.990555 53.764492 36.016697 145.479034 -177.086212 -5.764394 63.453747 -1.705006 -0.396663 -21.116768 3.940440 2.326902 -21.574656 -1.919509 -3.260097 26.160015 1.006908 -6.745183 -7.144085 -8.915731 -1.117720 -52.804760 -36.420120 20.078844 -56.721809 8.919119 10.952263 8.524705 12.647240 -7.249403 11.057579 9.042061 -2.265095 54.183613 20.329199 11.437749 51.744606 -8.087380 8.873324 -8.534408 -12.637552 55.540871 -74.177399 4.432923 0.440233 68.768372 -1.667085 -8.819917 -171.783386 170.203094 -4.603609 -70.400749 -0.869198 -0.364601 59.456940 2.789770 8.090253 -10.213477 -2.719954 2.659677 
20.911831 53.302959 35.709820 146.490936 -176.306458 -5.452321 62.795570 -2.267098 -0.667001 -20.833405 3.841417 2.376836 -21.707014 -1.855397 -3.442772 26.630943 1.135832 -7.010547 -7.144085 -8.915731 -1.117720 -51.156933 -37.837433 22.080963 -55.769073 8.789533 10.548343 8.524705 12.647240 -7.522840 11.057579 9.042061 -2.265095 54.561806 21.407154 9.467574 50.049644 -7.720304 8.179475 -8.534408 -12.637552 53.089706 -71.849350 3.964355 1.000826 64.994789 -2.144766 -8.548022 -171.473053 171.503693 -4.434521 -69.309479 -1.230631 1.519854 57.509777 2.994949 7.937441 -9.395612 -4.339271 2.472000 
20.833458 52.577393 35.414787 147.816101 -176.664566 -5.046225 61.803165 -1.753191 -0.274714 -20.364285 3.753328 2.379243 -21.213596 -2.045639 -3.420285 26.860683 1.276590 -6.919386 -7.144085 -8.915731 -1.117720 -50.591473 -38.759495 22.935720 -55.281738 8.713894 10.339953 8.524705 12.647240 -8.401746 11.057579 9.042061 -2.265095 54.411705 22.156008 8.960438 48.798489 -7.421328 7.682533 -8.534408 -12.637552 51.292828 -69.861855 4.238148 1.105262 62.622513 -2.427414 -8.368382 -170.997849 173.988907 -4.091789 -67.712234 -1.298742 1.812579 57.216766 3.018964 7.896799 -9.043414 -4.439877 2.467571 
20.719208 51.571770 35.050785 149.809631 -176.622223 -4.533156 61.044147 -1.206574 -0.703440 -20.079010 4.151539 2.192407 -20.945431 -2.448100 -3.248295 28.313961 0.943362 -6.603935 -7.144085 -8.915731 -1.117720 -51.325272 -38.893269 22.570288 -55.376881 8.727498 10.374300 8.524705 12.647240 -10.042373 11.057579 9.042061 -2.265095 53.719822 22.344849 10.284387 48.205662 -7.270460 7.446048 -8.534408 -12.637552 50.550640 -66.581589 4.227197 2.276204 61.830894 -2.497745 -8.317975 -170.601791 174.897354 -3.986798 -64.986137 -2.040948 1.412501 58.626019 2.872711 8.010572 -12.385058 -2.840881 2.487411 
20.588234 50.252308 34.897869 151.198776 -176.608643 -3.630514 59.356071 -0.599671 -0.734985 -19.952103 4.078644 1.986643 -20.811600 -2.259101 -3.468264 30.124537 0.593571 -6.796431 -7.144085 -8.915731 -1.117720 -51.085979 -38.707699 23.993185 -56.043297 8.824996 10.661165 8.524705 12.647240 -9.807996 11.057579 9.042061 -2.265095 53.646072 22.153458 11.204962 48.362064 -7.313855 7.511057 -8.534408 -12.637552 50.316261 -64.387779 4.012765 3.832185 63.228024 -2.359068 -8.414301 -164.526672 174.963272 -4.360324 -63.968136 -2.997724 0.424562 61.470570 2.540347 8.256038 -17.132629 -1.431959 2.474257 
20.400139 49.299633 34.679119 154.545303 -176.712601 -3.811521 60.103043 -0.379733 -0.864458 -20.313869 4.159446 1.960580 -20.560177 -2.447533 -3.389330 30.793320 0.460490 -6.582621 -7.144085 -8.915731 -1.117720 -51.675797 -38.203327 24.259089 -57.379490 9.003443 11.244090 8.524705 12.647240 -9.202527 11.057579 9.042061 -2.265095 53.130623 21.976221 12.875558 49.204235 -7.517872 7.838038 -8.534408 -12.637552 50.785015 -60.966179 4.150588 5.327896 65.658028 -2.079695 -8.607109 -160.079269 173.310135 -5.136332 -60.968422 -3.300504 -0.235784 64.565620 2.179036 8.506905 -22.415823 -0.285667 2.419051 
20.263594 48.237583 34.586468 157.993591 -176.928909 -3.815422 61.430798 -0.104618 -1.143682 -21.095795 4.527164 1.877934 -19.956078 -2.729428 -3.219723 30.248156 0.521079 -6.298160 -7.144085 -8.915731 -1.117720 -52.408134 -37.528488 24.281221 -59.122669 9.193682 12.014271 8.524705 12.647240 -8.274794 11.057579 9.042061 -2.265095 52.449657 21.930611 14.615475 50.624962 -7.853298 8.415450 -8.534408 -12.637552 51.800640 -58.364731 3.876330 5.576668 68.749069 -1.686930 -8.821347 -157.116776 171.290634 -6.116095 -58.337467 -3.447255 -0.428968 67.862862 1.787788 8.734428 -25.678759 0.247808 2.313945 
20.150736 47.312080 34.384785 159.418304 -176.814713 -4.281339 60.558971 -0.782303 -1.005628 -21.438494 4.510659 1.919974 -19.073494 -2.390740 -3.404724 28.885300 0.746080 -6.437925 -7.144085 -8.915731 -1.117720 -52.348503 -37.353722 25.307377 -60.837921 9.334123 12.778381 8.524705 12.647240 -6.761121 11.057579 9.042061 -2.265095 52.155411 22.387358 15.558672 52.291134 -8.200533 9.098814 -8.534408 -12.637552 53.714703 -58.088558 3.583312 5.532546 71.662300 -1.325310 -9.003306 -155.171646 169.804520 -6.950815 -58.200348 -3.320282 0.087972 70.766655 1.416294 8.923989 -27.825098 1.053865 2.458212 
20.016981 46.621693 34.130856 160.091232 -177.556381 -5.098702 58.960712 -0.865378 -0.148558 -21.282080 4.390150 2.022655 -17.992352 -2.163799 -3.416373 26.906519 0.808908 -6.351474 -7.144085 -8.915731 -1.117720 -52.375488 -37.949154 25.958757 -61.880898 9.389738 13.248196 8.524705 12.647240 -5.491590 11.057579 9.042061 -2.265095 51.231697 23.870775 16.973278 53.626713 -8.448037 9.646941 -8.534408 -12.637552 56.468609 -58.648834 4.101402 4.761226 74.163826 -0.993664 -9.157861 -153.730988 168.646637 -7.694103 -58.173382 -2.333864 -0.002321 72.995918 1.123678 9.072933 -29.424011 1.654468 2.629200 
